<mxfile host="app.diagrams.net" agent="Mozilla/5.0 (Windows NT 10.0; Win64; x64) AppleWebKit/537.36 (KHTML, like Gecko) Chrome/131.0.0.0 Safari/537.36" version="25.0.1">
  <diagram name="第 1 页" id="-5ERnwlfyNxcssCZPw4u">
    <mxGraphModel dx="785" dy="323" grid="0" gridSize="20" guides="1" tooltips="1" connect="1" arrows="1" fold="1" page="0" pageScale="1" pageWidth="827" pageHeight="1169" math="0" shadow="0">
      <root>
        <mxCell id="0" />
        <mxCell id="1" parent="0" />
        <mxCell id="9SrKDcULOdGZOOrjOinh-85" value="" style="rounded=1;whiteSpace=wrap;html=1;fillColor=#f5f5f5;fontColor=#333333;strokeColor=#666666;" vertex="1" parent="1">
          <mxGeometry x="-190" y="100" width="413" height="291" as="geometry" />
        </mxCell>
        <mxCell id="9SrKDcULOdGZOOrjOinh-73" value="" style="rounded=0;whiteSpace=wrap;html=1;fillColor=#f8cecc;strokeColor=#b85450;" vertex="1" parent="1">
          <mxGeometry x="-10" y="230" width="20" height="20" as="geometry" />
        </mxCell>
        <mxCell id="9SrKDcULOdGZOOrjOinh-9" value="" style="rounded=0;whiteSpace=wrap;html=1;fillColor=#f8cecc;strokeColor=#b85450;" vertex="1" parent="1">
          <mxGeometry x="-90" y="110" width="20" height="20" as="geometry" />
        </mxCell>
        <mxCell id="9SrKDcULOdGZOOrjOinh-10" value="" style="rounded=0;whiteSpace=wrap;html=1;fillColor=#f8cecc;strokeColor=#b85450;" vertex="1" parent="1">
          <mxGeometry x="149" y="310" width="20" height="21" as="geometry" />
        </mxCell>
        <mxCell id="9SrKDcULOdGZOOrjOinh-19" value="" style="shape=waypoint;sketch=0;fillStyle=solid;size=6;pointerEvents=1;points=[];fillColor=#f5f5f5;resizable=0;rotatable=0;perimeter=centerPerimeter;snapToPoint=1;strokeWidth=0;fontColor=#333333;strokeColor=#666666;opacity=30;" vertex="1" parent="1">
          <mxGeometry x="-70" y="170" width="20" height="20" as="geometry" />
        </mxCell>
        <mxCell id="9SrKDcULOdGZOOrjOinh-20" value="" style="shape=waypoint;sketch=0;fillStyle=solid;size=6;pointerEvents=1;points=[];fillColor=#f5f5f5;resizable=0;rotatable=0;perimeter=centerPerimeter;snapToPoint=1;strokeWidth=0;fontColor=#333333;strokeColor=#666666;opacity=30;" vertex="1" parent="1">
          <mxGeometry x="-50" y="190" width="20" height="20" as="geometry" />
        </mxCell>
        <mxCell id="9SrKDcULOdGZOOrjOinh-21" value="" style="shape=waypoint;sketch=0;fillStyle=solid;size=6;pointerEvents=1;points=[];fillColor=#f5f5f5;resizable=0;rotatable=0;perimeter=centerPerimeter;snapToPoint=1;strokeWidth=0;fontColor=#333333;strokeColor=#666666;opacity=30;" vertex="1" parent="1">
          <mxGeometry x="-30" y="210" width="20" height="20" as="geometry" />
        </mxCell>
        <mxCell id="9SrKDcULOdGZOOrjOinh-23" value="" style="shape=waypoint;sketch=0;fillStyle=solid;size=6;pointerEvents=1;points=[];fillColor=#f5f5f5;resizable=0;rotatable=0;perimeter=centerPerimeter;snapToPoint=1;strokeWidth=0;fontColor=#333333;strokeColor=#666666;opacity=30;" vertex="1" parent="1">
          <mxGeometry x="10" y="250" width="20" height="20" as="geometry" />
        </mxCell>
        <mxCell id="9SrKDcULOdGZOOrjOinh-24" value="" style="shape=waypoint;sketch=0;fillStyle=solid;size=6;pointerEvents=1;points=[];fillColor=#f5f5f5;resizable=0;rotatable=0;perimeter=centerPerimeter;snapToPoint=1;strokeWidth=0;fontColor=#333333;strokeColor=#666666;opacity=30;" vertex="1" parent="1">
          <mxGeometry x="30" y="270" width="20" height="20" as="geometry" />
        </mxCell>
        <mxCell id="9SrKDcULOdGZOOrjOinh-25" value="" style="shape=waypoint;sketch=0;fillStyle=solid;size=6;pointerEvents=1;points=[];fillColor=#f5f5f5;resizable=0;rotatable=0;perimeter=centerPerimeter;snapToPoint=1;strokeWidth=0;fontColor=#333333;strokeColor=#666666;opacity=30;" vertex="1" parent="1">
          <mxGeometry x="50" y="290" width="20" height="20" as="geometry" />
        </mxCell>
        <mxCell id="9SrKDcULOdGZOOrjOinh-26" value="" style="shape=waypoint;sketch=0;fillStyle=solid;size=6;pointerEvents=1;points=[];fillColor=#f5f5f5;resizable=0;rotatable=0;perimeter=centerPerimeter;snapToPoint=1;strokeWidth=0;fontColor=#333333;strokeColor=#666666;opacity=30;" vertex="1" parent="1">
          <mxGeometry x="-70" y="190" width="20" height="20" as="geometry" />
        </mxCell>
        <mxCell id="9SrKDcULOdGZOOrjOinh-27" value="" style="shape=waypoint;sketch=0;fillStyle=solid;size=6;pointerEvents=1;points=[];fillColor=#f5f5f5;resizable=0;rotatable=0;perimeter=centerPerimeter;snapToPoint=1;strokeWidth=0;fontColor=#333333;strokeColor=#666666;opacity=30;" vertex="1" parent="1">
          <mxGeometry x="-50" y="210" width="20" height="20" as="geometry" />
        </mxCell>
        <mxCell id="9SrKDcULOdGZOOrjOinh-28" value="" style="shape=waypoint;sketch=0;fillStyle=solid;size=6;pointerEvents=1;points=[];fillColor=#f5f5f5;resizable=0;rotatable=0;perimeter=centerPerimeter;snapToPoint=1;strokeWidth=0;fontColor=#333333;strokeColor=#666666;opacity=30;" vertex="1" parent="1">
          <mxGeometry x="-30" y="230" width="20" height="20" as="geometry" />
        </mxCell>
        <mxCell id="9SrKDcULOdGZOOrjOinh-29" value="" style="shape=waypoint;sketch=0;fillStyle=solid;size=6;pointerEvents=1;points=[];fillColor=#f5f5f5;resizable=0;rotatable=0;perimeter=centerPerimeter;snapToPoint=1;strokeWidth=0;fontColor=#333333;strokeColor=#666666;opacity=30;" vertex="1" parent="1">
          <mxGeometry x="-10" y="250" width="20" height="20" as="geometry" />
        </mxCell>
        <mxCell id="9SrKDcULOdGZOOrjOinh-30" value="" style="shape=waypoint;sketch=0;fillStyle=solid;size=6;pointerEvents=1;points=[];fillColor=#f5f5f5;resizable=0;rotatable=0;perimeter=centerPerimeter;snapToPoint=1;strokeWidth=0;fontColor=#333333;strokeColor=#666666;opacity=30;" vertex="1" parent="1">
          <mxGeometry x="10" y="270" width="20" height="20" as="geometry" />
        </mxCell>
        <mxCell id="9SrKDcULOdGZOOrjOinh-31" value="" style="shape=waypoint;sketch=0;fillStyle=solid;size=6;pointerEvents=1;points=[];fillColor=#f5f5f5;resizable=0;rotatable=0;perimeter=centerPerimeter;snapToPoint=1;strokeWidth=0;fontColor=#333333;strokeColor=#666666;opacity=30;" vertex="1" parent="1">
          <mxGeometry x="30" y="290" width="20" height="20" as="geometry" />
        </mxCell>
        <mxCell id="9SrKDcULOdGZOOrjOinh-32" value="" style="shape=waypoint;sketch=0;fillStyle=solid;size=6;pointerEvents=1;points=[];fillColor=#f5f5f5;resizable=0;rotatable=0;perimeter=centerPerimeter;snapToPoint=1;strokeWidth=0;fontColor=#333333;strokeColor=#666666;opacity=30;" vertex="1" parent="1">
          <mxGeometry x="-70" y="210" width="20" height="20" as="geometry" />
        </mxCell>
        <mxCell id="9SrKDcULOdGZOOrjOinh-33" value="" style="shape=waypoint;sketch=0;fillStyle=solid;size=6;pointerEvents=1;points=[];fillColor=#f5f5f5;resizable=0;rotatable=0;perimeter=centerPerimeter;snapToPoint=1;strokeWidth=0;fontColor=#333333;strokeColor=#666666;opacity=30;" vertex="1" parent="1">
          <mxGeometry x="-50" y="230" width="20" height="20" as="geometry" />
        </mxCell>
        <mxCell id="9SrKDcULOdGZOOrjOinh-34" value="" style="shape=waypoint;sketch=0;fillStyle=solid;size=6;pointerEvents=1;points=[];fillColor=#f5f5f5;resizable=0;rotatable=0;perimeter=centerPerimeter;snapToPoint=1;strokeWidth=0;fontColor=#333333;strokeColor=#666666;opacity=30;" vertex="1" parent="1">
          <mxGeometry x="-30" y="250" width="20" height="20" as="geometry" />
        </mxCell>
        <mxCell id="9SrKDcULOdGZOOrjOinh-35" value="" style="shape=waypoint;sketch=0;fillStyle=solid;size=6;pointerEvents=1;points=[];fillColor=#f5f5f5;resizable=0;rotatable=0;perimeter=centerPerimeter;snapToPoint=1;strokeWidth=0;fontColor=#333333;strokeColor=#666666;opacity=30;" vertex="1" parent="1">
          <mxGeometry x="-10" y="270" width="20" height="20" as="geometry" />
        </mxCell>
        <mxCell id="9SrKDcULOdGZOOrjOinh-36" value="" style="shape=waypoint;sketch=0;fillStyle=solid;size=6;pointerEvents=1;points=[];fillColor=#f5f5f5;resizable=0;rotatable=0;perimeter=centerPerimeter;snapToPoint=1;strokeWidth=0;fontColor=#333333;strokeColor=#666666;opacity=30;" vertex="1" parent="1">
          <mxGeometry x="10" y="290" width="20" height="20" as="geometry" />
        </mxCell>
        <mxCell id="9SrKDcULOdGZOOrjOinh-37" value="" style="shape=waypoint;sketch=0;fillStyle=solid;size=6;pointerEvents=1;points=[];fillColor=#f5f5f5;resizable=0;rotatable=0;perimeter=centerPerimeter;snapToPoint=1;strokeWidth=0;fontColor=#333333;strokeColor=#666666;opacity=30;" vertex="1" parent="1">
          <mxGeometry x="-70" y="230" width="20" height="20" as="geometry" />
        </mxCell>
        <mxCell id="9SrKDcULOdGZOOrjOinh-38" value="" style="shape=waypoint;sketch=0;fillStyle=solid;size=6;pointerEvents=1;points=[];fillColor=#f5f5f5;resizable=0;rotatable=0;perimeter=centerPerimeter;snapToPoint=1;strokeWidth=0;fontColor=#333333;strokeColor=#666666;opacity=30;" vertex="1" parent="1">
          <mxGeometry x="-50" y="250" width="20" height="20" as="geometry" />
        </mxCell>
        <mxCell id="9SrKDcULOdGZOOrjOinh-39" value="" style="shape=waypoint;sketch=0;fillStyle=solid;size=6;pointerEvents=1;points=[];fillColor=#f5f5f5;resizable=0;rotatable=0;perimeter=centerPerimeter;snapToPoint=1;strokeWidth=0;fontColor=#333333;strokeColor=#666666;opacity=30;" vertex="1" parent="1">
          <mxGeometry x="-30" y="270" width="20" height="20" as="geometry" />
        </mxCell>
        <mxCell id="9SrKDcULOdGZOOrjOinh-40" value="" style="shape=waypoint;sketch=0;fillStyle=solid;size=6;pointerEvents=1;points=[];fillColor=#f5f5f5;resizable=0;rotatable=0;perimeter=centerPerimeter;snapToPoint=1;strokeWidth=0;fontColor=#333333;strokeColor=#666666;opacity=30;" vertex="1" parent="1">
          <mxGeometry x="-10" y="290" width="20" height="20" as="geometry" />
        </mxCell>
        <mxCell id="9SrKDcULOdGZOOrjOinh-41" value="" style="shape=waypoint;sketch=0;fillStyle=solid;size=6;pointerEvents=1;points=[];fillColor=#f5f5f5;resizable=0;rotatable=0;perimeter=centerPerimeter;snapToPoint=1;strokeWidth=0;fontColor=#333333;strokeColor=#666666;opacity=30;" vertex="1" parent="1">
          <mxGeometry x="-70" y="250" width="20" height="20" as="geometry" />
        </mxCell>
        <mxCell id="9SrKDcULOdGZOOrjOinh-43" value="" style="shape=waypoint;sketch=0;fillStyle=solid;size=6;pointerEvents=1;points=[];fillColor=#f5f5f5;resizable=0;rotatable=0;perimeter=centerPerimeter;snapToPoint=1;strokeWidth=0;fontColor=#333333;strokeColor=#666666;opacity=30;" vertex="1" parent="1">
          <mxGeometry x="-50" y="270" width="20" height="20" as="geometry" />
        </mxCell>
        <mxCell id="9SrKDcULOdGZOOrjOinh-44" value="" style="shape=waypoint;sketch=0;fillStyle=solid;size=6;pointerEvents=1;points=[];fillColor=#f5f5f5;resizable=0;rotatable=0;perimeter=centerPerimeter;snapToPoint=1;strokeWidth=0;fontColor=#333333;strokeColor=#666666;opacity=30;" vertex="1" parent="1">
          <mxGeometry x="-30" y="290" width="20" height="20" as="geometry" />
        </mxCell>
        <mxCell id="9SrKDcULOdGZOOrjOinh-45" value="" style="shape=waypoint;sketch=0;fillStyle=solid;size=6;pointerEvents=1;points=[];fillColor=#f5f5f5;resizable=0;rotatable=0;perimeter=centerPerimeter;snapToPoint=1;strokeWidth=0;fontColor=#333333;strokeColor=#666666;opacity=30;" vertex="1" parent="1">
          <mxGeometry x="-70" y="290" width="20" height="20" as="geometry" />
        </mxCell>
        <mxCell id="9SrKDcULOdGZOOrjOinh-46" value="" style="shape=waypoint;sketch=0;fillStyle=solid;size=6;pointerEvents=1;points=[];fillColor=#f5f5f5;resizable=0;rotatable=0;perimeter=centerPerimeter;snapToPoint=1;strokeWidth=0;fontColor=#333333;strokeColor=#666666;opacity=30;" vertex="1" parent="1">
          <mxGeometry x="-50" y="290" width="20" height="20" as="geometry" />
        </mxCell>
        <mxCell id="9SrKDcULOdGZOOrjOinh-47" value="" style="shape=waypoint;sketch=0;fillStyle=solid;size=6;pointerEvents=1;points=[];fillColor=#f5f5f5;resizable=0;rotatable=0;perimeter=centerPerimeter;snapToPoint=1;strokeWidth=0;fontColor=#333333;strokeColor=#666666;opacity=30;" vertex="1" parent="1">
          <mxGeometry x="-70" y="270" width="20" height="20" as="geometry" />
        </mxCell>
        <mxCell id="9SrKDcULOdGZOOrjOinh-48" value="" style="shape=waypoint;sketch=0;fillStyle=solid;size=6;pointerEvents=1;points=[];fillColor=#f5f5f5;resizable=0;rotatable=0;perimeter=centerPerimeter;snapToPoint=1;strokeWidth=0;fontColor=#333333;strokeColor=#666666;opacity=30;" vertex="1" parent="1">
          <mxGeometry x="10" y="230" width="20" height="20" as="geometry" />
        </mxCell>
        <mxCell id="9SrKDcULOdGZOOrjOinh-49" value="" style="shape=waypoint;sketch=0;fillStyle=solid;size=6;pointerEvents=1;points=[];fillColor=#f5f5f5;resizable=0;rotatable=0;perimeter=centerPerimeter;snapToPoint=1;strokeWidth=0;fontColor=#333333;strokeColor=#666666;opacity=30;" vertex="1" parent="1">
          <mxGeometry x="30" y="230" width="20" height="20" as="geometry" />
        </mxCell>
        <mxCell id="9SrKDcULOdGZOOrjOinh-50" value="" style="shape=waypoint;sketch=0;fillStyle=solid;size=6;pointerEvents=1;points=[];fillColor=#f5f5f5;resizable=0;rotatable=0;perimeter=centerPerimeter;snapToPoint=1;strokeWidth=0;fontColor=#333333;strokeColor=#666666;opacity=30;" vertex="1" parent="1">
          <mxGeometry x="50" y="250" width="20" height="20" as="geometry" />
        </mxCell>
        <mxCell id="9SrKDcULOdGZOOrjOinh-51" value="" style="shape=waypoint;sketch=0;fillStyle=solid;size=6;pointerEvents=1;points=[];fillColor=#f5f5f5;resizable=0;rotatable=0;perimeter=centerPerimeter;snapToPoint=1;strokeWidth=0;fontColor=#333333;strokeColor=#666666;opacity=30;" vertex="1" parent="1">
          <mxGeometry x="30" y="250" width="20" height="20" as="geometry" />
        </mxCell>
        <mxCell id="9SrKDcULOdGZOOrjOinh-52" value="" style="shape=waypoint;sketch=0;fillStyle=solid;size=6;pointerEvents=1;points=[];fillColor=#f5f5f5;resizable=0;rotatable=0;perimeter=centerPerimeter;snapToPoint=1;strokeWidth=0;fontColor=#333333;strokeColor=#666666;opacity=30;" vertex="1" parent="1">
          <mxGeometry x="50" y="270" width="20" height="20" as="geometry" />
        </mxCell>
        <mxCell id="9SrKDcULOdGZOOrjOinh-53" value="" style="shape=waypoint;sketch=0;fillStyle=solid;size=6;pointerEvents=1;points=[];fillColor=#f5f5f5;resizable=0;rotatable=0;perimeter=centerPerimeter;snapToPoint=1;strokeWidth=0;fontColor=#333333;strokeColor=#666666;opacity=30;" vertex="1" parent="1">
          <mxGeometry x="50" y="230" width="20" height="20" as="geometry" />
        </mxCell>
        <mxCell id="9SrKDcULOdGZOOrjOinh-54" value="" style="shape=waypoint;sketch=0;fillStyle=solid;size=6;pointerEvents=1;points=[];fillColor=#f5f5f5;resizable=0;rotatable=0;perimeter=centerPerimeter;snapToPoint=1;strokeWidth=0;fontColor=#333333;strokeColor=#666666;opacity=30;" vertex="1" parent="1">
          <mxGeometry x="50" y="210" width="20" height="20" as="geometry" />
        </mxCell>
        <mxCell id="9SrKDcULOdGZOOrjOinh-55" value="" style="shape=waypoint;sketch=0;fillStyle=solid;size=6;pointerEvents=1;points=[];fillColor=#f5f5f5;resizable=0;rotatable=0;perimeter=centerPerimeter;snapToPoint=1;strokeWidth=0;fontColor=#333333;strokeColor=#666666;opacity=30;" vertex="1" parent="1">
          <mxGeometry x="-50" y="170" width="20" height="20" as="geometry" />
        </mxCell>
        <mxCell id="9SrKDcULOdGZOOrjOinh-56" value="" style="shape=waypoint;sketch=0;fillStyle=solid;size=6;pointerEvents=1;points=[];fillColor=#f5f5f5;resizable=0;rotatable=0;perimeter=centerPerimeter;snapToPoint=1;strokeWidth=0;fontColor=#333333;strokeColor=#666666;opacity=30;" vertex="1" parent="1">
          <mxGeometry x="-30" y="190" width="20" height="20" as="geometry" />
        </mxCell>
        <mxCell id="9SrKDcULOdGZOOrjOinh-57" value="" style="shape=waypoint;sketch=0;fillStyle=solid;size=6;pointerEvents=1;points=[];fillColor=#f5f5f5;resizable=0;rotatable=0;perimeter=centerPerimeter;snapToPoint=1;strokeWidth=0;fontColor=#333333;strokeColor=#666666;opacity=30;" vertex="1" parent="1">
          <mxGeometry x="-10" y="210" width="20" height="20" as="geometry" />
        </mxCell>
        <mxCell id="9SrKDcULOdGZOOrjOinh-58" value="" style="shape=waypoint;sketch=0;fillStyle=solid;size=6;pointerEvents=1;points=[];fillColor=#f5f5f5;resizable=0;rotatable=0;perimeter=centerPerimeter;snapToPoint=1;strokeWidth=0;fontColor=#333333;strokeColor=#666666;opacity=30;" vertex="1" parent="1">
          <mxGeometry x="10" y="210" width="20" height="20" as="geometry" />
        </mxCell>
        <mxCell id="9SrKDcULOdGZOOrjOinh-59" value="" style="shape=waypoint;sketch=0;fillStyle=solid;size=6;pointerEvents=1;points=[];fillColor=#f5f5f5;resizable=0;rotatable=0;perimeter=centerPerimeter;snapToPoint=1;strokeWidth=0;fontColor=#333333;strokeColor=#666666;opacity=30;" vertex="1" parent="1">
          <mxGeometry x="-30" y="170" width="20" height="20" as="geometry" />
        </mxCell>
        <mxCell id="9SrKDcULOdGZOOrjOinh-61" value="" style="shape=waypoint;sketch=0;fillStyle=solid;size=6;pointerEvents=1;points=[];fillColor=#f5f5f5;resizable=0;rotatable=0;perimeter=centerPerimeter;snapToPoint=1;strokeWidth=0;fontColor=#333333;strokeColor=#666666;opacity=30;" vertex="1" parent="1">
          <mxGeometry x="-10" y="170" width="20" height="20" as="geometry" />
        </mxCell>
        <mxCell id="9SrKDcULOdGZOOrjOinh-62" value="" style="shape=waypoint;sketch=0;fillStyle=solid;size=6;pointerEvents=1;points=[];fillColor=#f5f5f5;resizable=0;rotatable=0;perimeter=centerPerimeter;snapToPoint=1;strokeWidth=0;fontColor=#333333;strokeColor=#666666;opacity=30;" vertex="1" parent="1">
          <mxGeometry x="10" y="190" width="20" height="20" as="geometry" />
        </mxCell>
        <mxCell id="9SrKDcULOdGZOOrjOinh-63" value="" style="shape=waypoint;sketch=0;fillStyle=solid;size=6;pointerEvents=1;points=[];fillColor=#f5f5f5;resizable=0;rotatable=0;perimeter=centerPerimeter;snapToPoint=1;strokeWidth=0;fontColor=#333333;strokeColor=#666666;opacity=30;" vertex="1" parent="1">
          <mxGeometry x="30" y="210" width="20" height="20" as="geometry" />
        </mxCell>
        <mxCell id="9SrKDcULOdGZOOrjOinh-64" value="" style="shape=waypoint;sketch=0;fillStyle=solid;size=6;pointerEvents=1;points=[];fillColor=#f5f5f5;resizable=0;rotatable=0;perimeter=centerPerimeter;snapToPoint=1;strokeWidth=0;fontColor=#333333;strokeColor=#666666;opacity=30;" vertex="1" parent="1">
          <mxGeometry x="-10" y="190" width="20" height="20" as="geometry" />
        </mxCell>
        <mxCell id="9SrKDcULOdGZOOrjOinh-66" value="" style="shape=waypoint;sketch=0;fillStyle=solid;size=6;pointerEvents=1;points=[];fillColor=#f5f5f5;resizable=0;rotatable=0;perimeter=centerPerimeter;snapToPoint=1;strokeWidth=0;fontColor=#333333;strokeColor=#666666;opacity=30;" vertex="1" parent="1">
          <mxGeometry x="30" y="190" width="20" height="20" as="geometry" />
        </mxCell>
        <mxCell id="9SrKDcULOdGZOOrjOinh-67" value="" style="shape=waypoint;sketch=0;fillStyle=solid;size=6;pointerEvents=1;points=[];fillColor=#f5f5f5;resizable=0;rotatable=0;perimeter=centerPerimeter;snapToPoint=1;strokeWidth=0;fontColor=#333333;strokeColor=#666666;opacity=30;" vertex="1" parent="1">
          <mxGeometry x="50" y="170" width="20" height="20" as="geometry" />
        </mxCell>
        <mxCell id="9SrKDcULOdGZOOrjOinh-68" value="" style="shape=waypoint;sketch=0;fillStyle=solid;size=6;pointerEvents=1;points=[];fillColor=#f5f5f5;resizable=0;rotatable=0;perimeter=centerPerimeter;snapToPoint=1;strokeWidth=0;fontColor=#333333;strokeColor=#666666;opacity=30;" vertex="1" parent="1">
          <mxGeometry x="50" y="190" width="20" height="20" as="geometry" />
        </mxCell>
        <mxCell id="9SrKDcULOdGZOOrjOinh-69" value="" style="shape=waypoint;sketch=0;fillStyle=solid;size=6;pointerEvents=1;points=[];fillColor=#f5f5f5;resizable=0;rotatable=0;perimeter=centerPerimeter;snapToPoint=1;strokeWidth=0;fontColor=#333333;strokeColor=#666666;opacity=30;" vertex="1" parent="1">
          <mxGeometry x="30" y="170" width="20" height="20" as="geometry" />
        </mxCell>
        <mxCell id="9SrKDcULOdGZOOrjOinh-70" value="" style="shape=waypoint;sketch=0;fillStyle=solid;size=6;pointerEvents=1;points=[];fillColor=#f5f5f5;resizable=0;rotatable=0;perimeter=centerPerimeter;snapToPoint=1;strokeWidth=0;fontColor=#333333;strokeColor=#666666;opacity=30;" vertex="1" parent="1">
          <mxGeometry x="10" y="170" width="20" height="20" as="geometry" />
        </mxCell>
        <mxCell id="9SrKDcULOdGZOOrjOinh-71" value="" style="shape=waypoint;sketch=0;fillStyle=solid;size=6;pointerEvents=1;points=[];fillColor=#f5f5f5;resizable=0;rotatable=0;perimeter=centerPerimeter;snapToPoint=1;strokeWidth=0;fontColor=#333333;strokeColor=#666666;opacity=30;" vertex="1" parent="1">
          <mxGeometry x="-10" y="230" width="20" height="20" as="geometry" />
        </mxCell>
        <mxCell id="9SrKDcULOdGZOOrjOinh-72" value="" style="rounded=0;whiteSpace=wrap;html=1;fillColor=#f8cecc;strokeColor=#b85450;" vertex="1" parent="1">
          <mxGeometry x="70" y="110" width="20" height="20" as="geometry" />
        </mxCell>
        <mxCell id="9SrKDcULOdGZOOrjOinh-76" value="" style="ellipse;whiteSpace=wrap;html=1;aspect=fixed;fillColor=#e1d5e7;strokeColor=#9673a6;strokeWidth=3;" vertex="1" parent="1">
          <mxGeometry x="-160" y="360" width="20" height="20" as="geometry" />
        </mxCell>
        <mxCell id="9SrKDcULOdGZOOrjOinh-78" value="" style="endArrow=classic;html=1;rounded=0;fontSize=12;startSize=8;endSize=8;curved=1;entryX=0.5;entryY=0.5;entryDx=0;entryDy=0;entryPerimeter=0;" edge="1" parent="1" source="9SrKDcULOdGZOOrjOinh-71" target="9SrKDcULOdGZOOrjOinh-9">
          <mxGeometry width="50" height="50" relative="1" as="geometry">
            <mxPoint x="-20" y="250" as="sourcePoint" />
            <mxPoint x="30" y="200" as="targetPoint" />
          </mxGeometry>
        </mxCell>
        <mxCell id="9SrKDcULOdGZOOrjOinh-79" value="" style="endArrow=classic;html=1;rounded=0;fontSize=12;startSize=8;endSize=8;curved=1;entryX=0.5;entryY=0.5;entryDx=0;entryDy=0;entryPerimeter=0;" edge="1" parent="1" source="9SrKDcULOdGZOOrjOinh-71" target="9SrKDcULOdGZOOrjOinh-72">
          <mxGeometry width="50" height="50" relative="1" as="geometry">
            <mxPoint x="-60" y="230" as="sourcePoint" />
            <mxPoint x="-10" y="180" as="targetPoint" />
          </mxGeometry>
        </mxCell>
        <mxCell id="9SrKDcULOdGZOOrjOinh-80" value="" style="endArrow=classic;html=1;rounded=0;fontSize=12;startSize=8;endSize=8;curved=1;entryX=0.55;entryY=0.476;entryDx=0;entryDy=0;entryPerimeter=0;" edge="1" parent="1" source="9SrKDcULOdGZOOrjOinh-71" target="9SrKDcULOdGZOOrjOinh-10">
          <mxGeometry width="50" height="50" relative="1" as="geometry">
            <mxPoint x="-20" y="250" as="sourcePoint" />
            <mxPoint x="30" y="200" as="targetPoint" />
          </mxGeometry>
        </mxCell>
        <mxCell id="9SrKDcULOdGZOOrjOinh-81" value="" style="endArrow=classic;html=1;rounded=0;fontSize=12;startSize=8;endSize=8;curved=1;exitX=1;exitY=0;exitDx=0;exitDy=0;exitPerimeter=0;" edge="1" parent="1" source="9SrKDcULOdGZOOrjOinh-76">
          <mxGeometry width="50" height="50" relative="1" as="geometry">
            <mxPoint x="-120" y="350" as="sourcePoint" />
            <mxPoint x="0.6049636314655172" y="240" as="targetPoint" />
          </mxGeometry>
        </mxCell>
        <mxCell id="9SrKDcULOdGZOOrjOinh-82" value="" style="rounded=0;whiteSpace=wrap;html=1;fillColor=none;" vertex="1" parent="1">
          <mxGeometry x="-60" y="180" width="120" height="120" as="geometry" />
        </mxCell>
        <mxCell id="9SrKDcULOdGZOOrjOinh-83" value="" style="shape=curlyBracket;whiteSpace=wrap;html=1;rounded=1;flipH=1;labelPosition=right;verticalLabelPosition=middle;align=left;verticalAlign=middle;rotation=90;" vertex="1" parent="1">
          <mxGeometry x="-10" y="254" width="20" height="120" as="geometry" />
        </mxCell>
        <mxCell id="9SrKDcULOdGZOOrjOinh-84" value="&lt;font face=&quot;Times New Roman&quot;&gt;&lt;b&gt;R&lt;/b&gt;&lt;/font&gt;" style="text;html=1;align=center;verticalAlign=middle;whiteSpace=wrap;rounded=0;fontSize=16;" vertex="1" parent="1">
          <mxGeometry x="-25" y="321" width="60" height="30" as="geometry" />
        </mxCell>
      </root>
    </mxGraphModel>
  </diagram>
</mxfile>
